<mxfile host="Electron" modified="2024-01-17T22:57:19.318Z" agent="Mozilla/5.0 (Windows NT 10.0; Win64; x64) AppleWebKit/537.36 (KHTML, like Gecko) draw.io/21.6.5 Chrome/114.0.5735.243 Electron/25.3.1 Safari/537.36" etag="_QjtU2GpAAezKN0fkzQK" version="21.6.5" type="device">
  <diagram name="Page-1" id="-dl2wjOuyUJ1gArcNqXz">
    <mxGraphModel dx="974" dy="828" grid="1" gridSize="10" guides="1" tooltips="1" connect="1" arrows="1" fold="1" page="1" pageScale="1" pageWidth="850" pageHeight="1100" background="#ffffff" math="0" shadow="0">
      <root>
        <mxCell id="0" />
        <mxCell id="1" parent="0" />
        <mxCell id="P0WirJqRNze0UaOYiWo2-1" value="&lt;font color=&quot;#000000&quot;&gt;Dose Registry&lt;/font&gt;" style="rounded=0;whiteSpace=wrap;html=1;fillColor=none;strokeColor=#000000;" parent="1" vertex="1">
          <mxGeometry x="350" y="40" width="120" height="60" as="geometry" />
        </mxCell>
        <mxCell id="P0WirJqRNze0UaOYiWo2-13" style="edgeStyle=orthogonalEdgeStyle;rounded=0;orthogonalLoop=1;jettySize=auto;html=1;exitX=0.5;exitY=0;exitDx=0;exitDy=0;entryX=0.5;entryY=1;entryDx=0;entryDy=0;strokeColor=#000000;" parent="1" source="P0WirJqRNze0UaOYiWo2-2" target="P0WirJqRNze0UaOYiWo2-1" edge="1">
          <mxGeometry relative="1" as="geometry" />
        </mxCell>
        <mxCell id="P0WirJqRNze0UaOYiWo2-14" style="edgeStyle=orthogonalEdgeStyle;rounded=0;orthogonalLoop=1;jettySize=auto;html=1;exitX=0.5;exitY=1;exitDx=0;exitDy=0;entryX=0.45;entryY=0;entryDx=0;entryDy=0;entryPerimeter=0;strokeColor=#000000;" parent="1" source="P0WirJqRNze0UaOYiWo2-2" target="P0WirJqRNze0UaOYiWo2-4" edge="1">
          <mxGeometry relative="1" as="geometry" />
        </mxCell>
        <mxCell id="a3i5bwGRxwOStYGxkHnR-1" style="edgeStyle=orthogonalEdgeStyle;rounded=0;orthogonalLoop=1;jettySize=auto;html=1;exitX=1;exitY=0.5;exitDx=0;exitDy=0;" parent="1" source="P0WirJqRNze0UaOYiWo2-2" target="P0WirJqRNze0UaOYiWo2-10" edge="1">
          <mxGeometry relative="1" as="geometry" />
        </mxCell>
        <mxCell id="a3i5bwGRxwOStYGxkHnR-2" style="edgeStyle=orthogonalEdgeStyle;rounded=0;orthogonalLoop=1;jettySize=auto;html=1;exitX=1;exitY=0.5;exitDx=0;exitDy=0;entryX=0.5;entryY=1;entryDx=0;entryDy=0;" parent="1" source="P0WirJqRNze0UaOYiWo2-2" target="P0WirJqRNze0UaOYiWo2-9" edge="1">
          <mxGeometry relative="1" as="geometry" />
        </mxCell>
        <mxCell id="P0WirJqRNze0UaOYiWo2-2" value="&lt;font color=&quot;#000000&quot;&gt;Dose Reporter&lt;/font&gt;" style="rounded=0;whiteSpace=wrap;html=1;fillColor=none;strokeColor=#000000;" parent="1" vertex="1">
          <mxGeometry x="350" y="140" width="120" height="60" as="geometry" />
        </mxCell>
        <mxCell id="P0WirJqRNze0UaOYiWo2-3" value="&lt;font color=&quot;#000000&quot;&gt;Image Manager&lt;/font&gt;" style="rounded=0;whiteSpace=wrap;html=1;fillColor=none;strokeColor=#000000;" parent="1" vertex="1">
          <mxGeometry x="290" y="266" width="120" height="60" as="geometry" />
        </mxCell>
        <mxCell id="P0WirJqRNze0UaOYiWo2-4" value="&lt;font color=&quot;#000000&quot;&gt;Image Archive&lt;/font&gt;" style="rounded=0;whiteSpace=wrap;html=1;fillColor=none;strokeColor=#000000;" parent="1" vertex="1">
          <mxGeometry x="410" y="266" width="120" height="60" as="geometry" />
        </mxCell>
        <mxCell id="P0WirJqRNze0UaOYiWo2-15" style="edgeStyle=orthogonalEdgeStyle;rounded=0;orthogonalLoop=1;jettySize=auto;html=1;exitX=1;exitY=0.5;exitDx=0;exitDy=0;entryX=0;entryY=0.5;entryDx=0;entryDy=0;strokeColor=#000000;" parent="1" source="P0WirJqRNze0UaOYiWo2-5" target="P0WirJqRNze0UaOYiWo2-3" edge="1">
          <mxGeometry relative="1" as="geometry" />
        </mxCell>
        <mxCell id="P0WirJqRNze0UaOYiWo2-5" value="&lt;font color=&quot;#000000&quot;&gt;Dose Consumer&lt;/font&gt;" style="rounded=0;whiteSpace=wrap;html=1;fillColor=none;strokeColor=#000000;" parent="1" vertex="1">
          <mxGeometry x="110" y="266" width="120" height="60" as="geometry" />
        </mxCell>
        <mxCell id="P0WirJqRNze0UaOYiWo2-16" style="edgeStyle=orthogonalEdgeStyle;rounded=0;orthogonalLoop=1;jettySize=auto;html=1;exitX=0;exitY=0.5;exitDx=0;exitDy=0;entryX=0;entryY=0.5;entryDx=0;entryDy=0;strokeColor=#000000;" parent="1" source="P0WirJqRNze0UaOYiWo2-6" target="P0WirJqRNze0UaOYiWo2-5" edge="1">
          <mxGeometry relative="1" as="geometry">
            <Array as="points">
              <mxPoint x="80" y="424" />
              <mxPoint x="80" y="296" />
            </Array>
          </mxGeometry>
        </mxCell>
        <mxCell id="P0WirJqRNze0UaOYiWo2-18" style="edgeStyle=orthogonalEdgeStyle;rounded=0;orthogonalLoop=1;jettySize=auto;html=1;entryX=0;entryY=0.5;entryDx=0;entryDy=0;exitX=0;exitY=0.5;exitDx=0;exitDy=0;strokeColor=#000000;" parent="1" source="P0WirJqRNze0UaOYiWo2-6" target="P0WirJqRNze0UaOYiWo2-2" edge="1">
          <mxGeometry relative="1" as="geometry">
            <Array as="points">
              <mxPoint x="80" y="424" />
              <mxPoint x="80" y="170" />
            </Array>
          </mxGeometry>
        </mxCell>
        <mxCell id="P0WirJqRNze0UaOYiWo2-19" style="edgeStyle=orthogonalEdgeStyle;rounded=0;orthogonalLoop=1;jettySize=auto;html=1;exitX=0.5;exitY=0;exitDx=0;exitDy=0;entryX=0.5;entryY=1;entryDx=0;entryDy=0;strokeColor=#000000;" parent="1" source="P0WirJqRNze0UaOYiWo2-6" target="P0WirJqRNze0UaOYiWo2-4" edge="1">
          <mxGeometry relative="1" as="geometry" />
        </mxCell>
        <mxCell id="P0WirJqRNze0UaOYiWo2-6" value="&lt;font color=&quot;#050505&quot;&gt;Acquisition Modality&lt;/font&gt;" style="rounded=0;whiteSpace=wrap;html=1;fillColor=none;strokeColor=#000000;" parent="1" vertex="1">
          <mxGeometry x="350" y="394" width="120" height="60" as="geometry" />
        </mxCell>
        <mxCell id="P0WirJqRNze0UaOYiWo2-9" value="EHR" style="rounded=1;whiteSpace=wrap;html=1;fontColor=#000000;strokeColor=#000000;fillColor=none;" parent="1" vertex="1">
          <mxGeometry x="612" y="88" width="90" height="40" as="geometry" />
        </mxCell>
        <mxCell id="P0WirJqRNze0UaOYiWo2-10" value="RIS" style="rounded=1;whiteSpace=wrap;html=1;fontColor=#000000;strokeColor=#000000;fillColor=none;" parent="1" vertex="1">
          <mxGeometry x="612" y="183" width="90" height="40" as="geometry" />
        </mxCell>
        <mxCell id="P0WirJqRNze0UaOYiWo2-21" value="RAD-64&amp;nbsp;Query Dose Information&lt;br&gt;RAD-65 Retrieve Dose Information" style="rounded=0;whiteSpace=wrap;html=1;strokeColor=none;align=left;fillColor=none;fontColor=#000000;" parent="1" vertex="1">
          <mxGeometry x="194" y="202" width="210" height="60" as="geometry" />
        </mxCell>
        <mxCell id="P0WirJqRNze0UaOYiWo2-22" value="RAD-63&amp;nbsp;Submit Dose Information" style="rounded=0;whiteSpace=wrap;html=1;strokeColor=none;align=left;fillColor=none;fontColor=#000000;" parent="1" vertex="1">
          <mxGeometry x="194" y="106" width="200" height="30" as="geometry" />
        </mxCell>
        <mxCell id="P0WirJqRNze0UaOYiWo2-23" value="RAD-64&amp;nbsp;Query Dose Information&lt;br&gt;RAD-65 Retrieve Dose Information" style="rounded=0;whiteSpace=wrap;html=1;strokeColor=none;align=left;fillColor=none;fontColor=#000000;" parent="1" vertex="1">
          <mxGeometry x="150" y="330" width="210" height="56" as="geometry" />
        </mxCell>
        <mxCell id="P0WirJqRNze0UaOYiWo2-24" value="RAD-62 Store Dose Information (RDSR)" style="rounded=0;whiteSpace=wrap;html=1;strokeColor=none;align=left;fillColor=none;fontColor=#000000;" parent="1" vertex="1">
          <mxGeometry x="106" y="430" width="226" height="30" as="geometry" />
        </mxCell>
        <mxCell id="P0WirJqRNze0UaOYiWo2-25" value="&lt;font color=&quot;#000000&quot;&gt;RAD-62 Store Dose Information (RDSR)&lt;br&gt;RAD-10 Storage Commitment&lt;/font&gt;" style="rounded=0;whiteSpace=wrap;html=1;strokeColor=none;align=left;fillColor=none;" parent="1" vertex="1">
          <mxGeometry x="480" y="350" width="220" height="30" as="geometry" />
        </mxCell>
        <mxCell id="a3i5bwGRxwOStYGxkHnR-3" value="&lt;span style=&quot;font-weight: bold;&quot;&gt;&lt;font style=&quot;font-size: 12px;&quot;&gt;Radiation Dose Summary for Diagnostic Procedures on FHIR&lt;/font&gt;&lt;/span&gt;" style="text;whiteSpace=wrap;html=1;fontSize=11;fontColor=#7e0000;" parent="1" vertex="1">
          <mxGeometry x="471" y="129" width="185" height="50" as="geometry" />
        </mxCell>
      </root>
    </mxGraphModel>
  </diagram>
</mxfile>
